<svg xmlns="http://www.w3.org/2000/svg" width="1000" viewBox="0 0 750 375" height="500" version="1.0"><path d="M45.497 155.522H12.231v1.97h10.594l27.735 82.077h2.218l26.36-82.078h8.875v-1.969H65.95v1.97h10.61L56.106 221.21 34.403 157.49h11.094ZM134.232 208.382c-.086-1.313-.515-3.114-1.296-5.407-.782-2.3-1.997-4.52-3.641-6.656-1.649-2.144-3.824-4.015-6.531-5.61-2.711-1.6-6.04-2.405-9.985-2.405-3.281 0-6.34.78-9.172 2.343a25.546 25.546 0 0 0-7.343 6.047c-2.055 2.461-3.657 5.25-4.813 8.375-1.148 3.117-1.719 6.278-1.719 9.485 0 3.199.57 6.32 1.72 9.359 1.155 3.043 2.757 5.758 4.812 8.14 2.062 2.376 4.55 4.305 7.468 5.782 2.914 1.476 6.098 2.219 9.547 2.219 2.79 0 5.336-.391 7.64-1.172 2.302-.77 4.333-1.832 6.095-3.188a20.666 20.666 0 0 0 4.5-4.75 27.255 27.255 0 0 0 2.953-5.672c.25-.57.375-1.144.375-1.718 0-.582-.246-.875-.735-.875-.418 0-.789.414-1.109 1.234a35.157 35.157 0 0 1-2.781 5.187 19.465 19.465 0 0 1-4.063 4.547c-1.605 1.313-3.433 2.383-5.484 3.203-2.055.825-4.434 1.235-7.14 1.235-3.294 0-5.946-1.227-7.954-3.688-2.012-2.468-3.015-6.414-3.015-11.843V209.99h29.687c1.32 0 1.984-.535 1.984-1.61Zm-31.671-.36v-4.937c0-2.707.304-4.899.921-6.578.614-1.688 1.41-2.985 2.391-3.89.988-.907 2.098-1.52 3.328-1.845a14.25 14.25 0 0 1 3.703-.5c1.969 0 3.586.352 4.86 1.047 1.28.7 2.289 1.625 3.03 2.781a10.193 10.193 0 0 1 1.47 3.813 24.46 24.46 0 0 1 .375 4.312c0 3.868-.618 5.797-1.844 5.797ZM179.818 229.085v9.25h19.22v-1.969h-8.626v-46.344h-19.219v1.97h8.625v30.687c0 1.324-.39 2.765-1.171 4.328-.782 1.554-1.829 3.011-3.141 4.375a17.842 17.842 0 0 1-4.563 3.39c-1.718.899-3.484 1.344-5.296 1.344-2.875 0-4.727-.695-5.547-2.094-.825-1.394-1.235-3.656-1.235-6.78v-37.22h-19.218v1.97h8.625v34.39c0 2.625.328 4.804.984 6.531.656 1.73 1.555 3.09 2.703 4.078 1.156.98 2.492 1.672 4.016 2.078 1.52.414 3.101.625 4.75.625 4.351 0 8.148-.922 11.39-2.765 3.25-1.852 5.817-4.47 7.703-7.844ZM202.982 190.022v1.97h8.016l19.719 46.843h.984l18.734-46.844h7.266v-1.969h-18.234v1.97h8.75l-12.828 32.171-13.063-32.172h8.64v-1.969ZM305.766 208.382c-.086-1.313-.516-3.114-1.297-5.407-.781-2.3-1.996-4.52-3.64-6.656-1.649-2.144-3.825-4.015-6.532-5.61-2.71-1.6-6.039-2.405-9.984-2.405-3.281 0-6.34.78-9.172 2.343a25.546 25.546 0 0 0-7.344 6.047c-2.054 2.461-3.656 5.25-4.812 8.375-1.149 3.117-1.719 6.278-1.719 9.485 0 3.199.57 6.32 1.719 9.359 1.156 3.043 2.758 5.758 4.812 8.14 2.063 2.376 4.551 4.305 7.469 5.782 2.914 1.476 6.098 2.219 9.547 2.219 2.789 0 5.336-.391 7.64-1.172 2.301-.77 4.333-1.832 6.094-3.188a20.666 20.666 0 0 0 4.5-4.75 27.255 27.255 0 0 0 2.953-5.672c.25-.57.375-1.144.375-1.718 0-.582-.246-.875-.734-.875-.418 0-.789.414-1.11 1.234a35.157 35.157 0 0 1-2.78 5.187 19.465 19.465 0 0 1-4.063 4.547c-1.606 1.313-3.434 2.383-5.484 3.203-2.055.825-4.434 1.235-7.141 1.235-3.293 0-5.945-1.227-7.953-3.688-2.012-2.468-3.016-6.414-3.016-11.843V209.99h29.688c1.32 0 1.984-.535 1.984-1.61Zm-31.672-.36v-4.937c0-2.707.305-4.899.922-6.578.613-1.688 1.41-2.985 2.39-3.89.989-.907 2.098-1.52 3.329-1.845a14.25 14.25 0 0 1 3.703-.5c1.969 0 3.586.352 4.86 1.047 1.28.7 2.288 1.625 3.03 2.781a10.193 10.193 0 0 1 1.47 3.813 24.46 24.46 0 0 1 .374 4.312c0 3.868-.617 5.797-1.843 5.797ZM408.402 213.32c-.406 0-.812.452-1.219 1.359a87.775 87.775 0 0 1-4.812 9.421c-1.73 2.918-3.703 5.446-5.922 7.579-2.219 2.136-4.683 3.804-7.39 5-2.711 1.187-5.711 1.78-9 1.78-7.47 0-13.012-2.913-16.626-8.75-3.617-5.831-5.421-14.378-5.421-25.64v-13.797c0-10.843 1.847-19.203 5.546-25.078 3.696-5.875 9.407-8.812 17.125-8.812 3.196 0 6.11.515 8.735 1.547a24.957 24.957 0 0 1 7.156 4.25c2.133 1.804 3.984 3.98 5.547 6.53 1.562 2.544 2.836 5.294 3.828 8.25.238.825.524 1.235.86 1.235.406 0 .609-.488.609-1.469v-20.093c0-.739-.086-1.227-.25-1.469-.156-.25-.402-.375-.735-.375-.406 0-.937.328-1.593.984l-4.813 4.922c-2.625-2.133-5.586-3.754-8.875-4.86-3.281-1.112-6.773-1.671-10.469-1.671-5.43 0-10.464 1.234-15.109 3.703a40.523 40.523 0 0 0-12.062 9.734c-3.407 4.024-6.059 8.602-7.954 13.735-1.886 5.137-2.828 10.336-2.828 15.594 0 6.086 1.086 11.777 3.266 17.078 2.176 5.293 5.031 9.914 8.562 13.86 3.532 3.937 7.516 7.058 11.954 9.358 4.437 2.301 8.953 3.454 13.546 3.454 3.864 0 7.563-.762 11.094-2.282 3.531-1.52 6.696-3.843 9.5-6.968l6.531 7.156c.407.406.774.61 1.11.61.488 0 .734-.29.734-.86v-23.781c0-.82-.21-1.235-.625-1.235ZM434.156 236.366v-80.844h-19.22v1.97h8.626v78.874h-8.625v1.969h27.86v-1.969ZM467.068 190.022h-19.844v1.97h9.235v44.374h-9.235v1.969h29.078v-1.969h-9.234Zm.984-22.797c0-1.8-.62-3.316-1.859-4.546-1.23-1.239-2.746-1.86-4.547-1.86-1.812 0-3.336.621-4.562 1.86-1.23 1.23-1.844 2.746-1.844 4.546 0 1.813.613 3.336 1.844 4.563 1.226 1.23 2.75 1.844 4.562 1.844 1.801 0 3.317-.614 4.547-1.844 1.238-1.227 1.86-2.75 1.86-4.563ZM492.949 217.022V211.6c0-4.03.242-7.398.734-10.109.489-2.707 1.243-4.906 2.266-6.594 1.031-1.687 2.328-2.879 3.89-3.578 1.563-.695 3.41-1.047 5.547-1.047 3.04 0 5.114.391 6.22 1.172 1.112.781 1.671 1.336 1.671 1.656 0 .336-.125.625-.375.875-.574.657-1.008 1.336-1.297 2.032-.281.699-.422 1.578-.422 2.64 0 1.649.532 2.903 1.594 3.766 1.07.867 2.305 1.297 3.703 1.297 1.645 0 2.957-.492 3.938-1.485.988-.988 1.484-2.257 1.484-3.812 0-1.563-.539-2.977-1.61-4.25-1.062-1.281-2.398-2.348-4-3.203a21.572 21.572 0 0 0-5.234-1.969c-1.886-.457-3.695-.687-5.422-.687-3.21 0-6.335.636-9.375 1.906a26.824 26.824 0 0 0-8.125 5.297c-2.386 2.261-4.32 4.996-5.796 8.203-1.48 3.199-2.22 6.73-2.22 10.594 0 3.949.72 7.507 2.157 10.671 1.438 3.157 3.328 5.868 5.672 8.125a24.34 24.34 0 0 0 8.016 5.172c3 1.188 6.015 1.782 9.046 1.782 3.04 0 5.711-.477 8.016-1.422 2.3-.938 4.234-2.125 5.797-3.563 1.562-1.437 2.789-2.957 3.687-4.562.907-1.602 1.567-3.063 1.985-4.375.156-.489.234-.817.234-.985 0-.738-.328-1.109-.984-1.109-.492 0-.86.414-1.11 1.234-.492 1.563-1.23 3.106-2.218 4.625a18.739 18.739 0 0 1-3.625 4.125c-1.438 1.23-3.125 2.215-5.063 2.953-1.93.743-4.043 1.11-6.344 1.11-2.543 0-4.617-.367-6.218-1.11-1.606-.738-2.883-1.945-3.828-3.625-.938-1.687-1.575-3.863-1.907-6.53-.324-2.677-.484-5.942-.484-9.798ZM583.765 191.991v-1.969h-18.61v6.532c-1.398-2.133-3.288-3.977-5.671-5.532-2.387-1.562-5.137-2.343-8.25-2.343-2.875 0-5.696.699-8.453 2.093a25.427 25.427 0 0 0-7.329 5.61c-2.136 2.336-3.882 5.023-5.234 8.062a23.354 23.354 0 0 0-2.031 9.61c0 3.375.676 6.625 2.031 9.75 1.352 3.117 3.117 5.886 5.297 8.312 2.176 2.418 4.66 4.344 7.453 5.781 2.79 1.438 5.625 2.157 8.5 2.157 3.613 0 6.445-.7 8.5-2.094 2.063-1.395 3.79-3.035 5.188-4.922v36.36h-8.016v1.968h26.625v-1.969h-8.016v-77.406Zm-18.61 11.844v20.828c0 1.719-.328 3.383-.984 4.984a13.684 13.684 0 0 1-2.719 4.25c-1.148 1.23-2.543 2.215-4.187 2.953-1.648.743-3.496 1.11-5.547 1.11-1.648 0-3.125-.223-4.437-.672-1.313-.445-2.446-1.305-3.391-2.578-.938-1.281-1.656-3.086-2.156-5.422-.492-2.344-.735-5.406-.735-9.188v-13.562c0-3.04.285-5.586.86-7.64.57-2.051 1.351-3.712 2.343-4.985.989-1.281 2.098-2.207 3.329-2.781a8.988 8.988 0 0 1 3.828-.86c1.55 0 3.148.391 4.797 1.172a18.255 18.255 0 0 1 4.5 3.031 14.676 14.676 0 0 1 3.265 4.313c.82 1.637 1.235 3.32 1.235 5.047ZM626.89 229.085v9.25h19.219v-1.969h-8.625v-46.344h-19.219v1.97h8.625v30.687c0 1.324-.39 2.765-1.172 4.328-.781 1.554-1.828 3.011-3.14 4.375a17.842 17.842 0 0 1-4.563 3.39c-1.719.899-3.484 1.344-5.297 1.344-2.875 0-4.726-.695-5.547-2.094-.824-1.394-1.234-3.656-1.234-6.78v-37.22h-19.219v1.97h8.625v34.39c0 2.625.328 4.804.985 6.531.656 1.73 1.554 3.09 2.703 4.078 1.156.98 2.492 1.672 4.015 2.078 1.52.414 3.102.625 4.75.625 4.352 0 8.149-.922 11.39-2.765 3.25-1.852 5.817-4.47 7.704-7.844ZM674.945 240.054c3.695 0 7.046-.84 10.046-2.516 3-1.688 5.547-3.8 7.641-6.344a29.634 29.634 0 0 0 4.86-8.39c1.156-3.04 1.734-5.914 1.734-8.625 0-2.707-.578-5.582-1.735-8.625a29.5 29.5 0 0 0-4.859-8.375c-2.094-2.551-4.64-4.664-7.64-6.344-3-1.688-6.352-2.531-10.047-2.531-3.7 0-7.047.843-10.047 2.53-2.993 1.68-5.555 3.794-7.688 6.345a28.937 28.937 0 0 0-4.937 8.375c-1.149 3.043-1.72 5.918-1.72 8.625 0 2.71.571 5.586 1.72 8.625a29.067 29.067 0 0 0 4.937 8.39c2.133 2.543 4.695 4.656 7.688 6.344 3 1.676 6.347 2.516 10.047 2.516Zm-11.579-28.579c0-3.457.141-6.5.422-9.125.29-2.625.848-4.835 1.672-6.64.82-1.813 1.992-3.172 3.516-4.078 1.52-.907 3.508-1.36 5.969-1.36 2.468 0 4.46.453 5.984 1.36 1.52.906 2.672 2.265 3.453 4.078.781 1.805 1.313 4.015 1.594 6.64.289 2.625.437 5.668.437 9.125v5.297c0 3.7-.148 6.883-.437 9.547-.281 2.668-.813 4.867-1.594 6.594-.781 1.73-1.934 3.027-3.453 3.89-1.524.856-3.516 1.282-5.984 1.282-2.461 0-4.45-.426-5.97-1.281-1.523-.864-2.695-2.16-3.515-3.891-.824-1.727-1.383-3.926-1.672-6.594-.28-2.664-.422-5.847-.422-9.547ZM720.914 190.022V170.68l-10.594 5.296v14.047h-8.39v1.97h8.39v33.28c0 4.606 1.227 8.22 3.688 10.844 2.468 2.625 6.039 3.938 10.718 3.938 4.852 0 8.285-.965 10.297-2.891 2.008-1.926 3.301-4.578 3.875-7.953.082-.406.125-.649.125-.735v-.375c0-.656-.246-.984-.734-.984-.656 0-1.028.414-1.11 1.234-.406 2.793-1.351 4.993-2.828 6.594-1.48 1.606-3.289 2.406-5.422 2.406-2.875 0-4.933-.984-6.171-2.953-1.23-1.976-1.844-4.937-1.844-8.875v-33.53h11.953v-1.97Zm0 0" fill="#fff"/></svg>