<svg width="1921" height="46" viewBox="0 0 1921 46" fill="none" xmlns="http://www.w3.org/2000/svg">
<g clip-path="url(#clip0_1_311)">
<g clip-path="url(#clip1_1_311)">
<g clip-path="url(#clip2_1_311)">
<path fill-rule="evenodd" clip-rule="evenodd" d="M1939.18 2.05437V49.7795H-19.21V4.51028C22.9457 0.793654 70.4294 -0.36758 123.913 1.31485C170.175 1.31485 214.894 6.87655 257.183 17.2498C311.916 30.6757 368.572 38.386 424.429 30.9056C504.668 20.1603 590.178 14.36 678.92 14.36C726.759 14.36 773.661 16.0456 819.302 19.283C835.99 20.4666 852.741 20.4288 869.409 18.9979C1000.9 7.71097 1150.99 1.31484 1310.35 1.31484C1455.13 1.31484 1592.27 6.59474 1714.76 16.0256C1748.15 18.5973 1781.64 15.0282 1814.67 9.36892C1845.48 4.08755 1877.37 1.31484 1910.04 1.31484C1919.83 1.31484 1929.54 1.56372 1939.18 2.05437Z" fill="#FEEDCD"/>
</g>
</g>
</g>
<defs>
<clipPath id="clip0_1_311">
<rect width="1959.41" height="49.22" fill="white" transform="translate(-19.21 0.560059)"/>
</clipPath>
<clipPath id="clip1_1_311">
<rect width="1958.39" height="49.22" fill="white" transform="translate(-19.21 0.560059)"/>
</clipPath>
<clipPath id="clip2_1_311">
<rect width="1958.39" height="49.2188" fill="white" transform="translate(-19.21 0.560669)"/>
</clipPath>
</defs>
</svg>
