<svg width="1925" height="42" viewBox="0 0 1925 42" fill="none" xmlns="http://www.w3.org/2000/svg">
<g clip-path="url(#clip0_1_456)">
<g clip-path="url(#clip1_1_456)">
<path fill-rule="evenodd" clip-rule="evenodd" d="M1971 18.064V-0.00732422H-45V19.3078C-1.68089 33.848 44.3454 41.6763 92.0526 41.6763C116.168 41.6763 139.852 39.6762 162.975 35.8201C306.116 11.9495 473.37 14.9534 616.791 37.077C636.466 40.112 656.528 41.677 676.895 41.677C697.437 41.677 717.668 40.0849 737.505 36.9985C877.173 15.2673 1038.4 12.3809 1177.8 35.7566C1201.05 39.6542 1224.87 41.6763 1249.11 41.6763C1273.76 41.6763 1297.98 39.5843 1321.6 35.5547C1462.64 11.4956 1626.6 13.1732 1767.8 36.3056C1789.4 39.8456 1811.49 41.677 1833.95 41.677C1881.66 41.677 1927.69 33.4132 1971 18.064Z" fill="#1C1C1C"/>
</g>
</g>
<defs>
<clipPath id="clip0_1_456">
<rect width="1925" height="42" fill="white"/>
</clipPath>
<clipPath id="clip1_1_456">
<rect width="2016" height="41.6842" fill="white" transform="translate(-45 -0.00732422)"/>
</clipPath>
</defs>
</svg>
