<svg width="1920" height="115" viewBox="0 0 1920 115" fill="none" xmlns="http://www.w3.org/2000/svg">
<g clip-path="url(#clip0_1_729)">
<g clip-path="url(#clip1_1_729)">
<g clip-path="url(#clip2_1_729)">
<g clip-path="url(#clip3_1_729)">
<path d="M-38.3999 114.953V37.2235L-12.6637 33.4623L64.5448 23.4327L166.264 26.567L254.502 39.1041L309.038 49.7606L363.575 52.8949L465.906 35.9698L571.302 22.179L720.817 9.01512L917.515 5.88086H1008.82L1144.24 14.0299L1342.16 37.8503L1418.14 52.8949L1453.07 49.7606L1531.51 52.8949L1612.39 59.7902L1681.63 70.4467L1722.08 59.7902L1798.67 49.7606L1849.53 52.268L1935.93 67.3124L1977.6 80.4763V114.953H-38.3999Z" fill="#1C1C1C"/>
<path fill-rule="evenodd" clip-rule="evenodd" d="M894.23 0.978516C1077.86 0.978516 1252.1 16.6726 1408.52 44.8168C1415.5 46.0718 1422.62 46.5114 1429.76 46.1853C1445.56 45.4642 1461.5 45.0977 1477.58 45.0977C1539.9 45.0977 1600.3 50.6056 1657.74 60.9359C1672.66 63.6204 1688.13 62.7777 1703.13 59.0016C1739.2 49.9192 1776.96 45.0977 1815.83 45.0977C1872.76 45.0977 1927.28 55.4352 1977.6 74.3354V84.8276C1927.39 65.4977 1872.85 54.9019 1815.83 54.9019C1777.78 54.9019 1740.82 59.6222 1705.52 68.5091C1689.32 72.5874 1672.44 73.5424 1656 70.5853C1599.14 60.3591 1539.33 54.9019 1477.58 54.9019C1461.66 54.9019 1445.87 55.2648 1430.2 55.9794C1422.36 56.3371 1414.52 55.8565 1406.78 54.466C1250.97 26.4313 1077.31 10.7828 894.23 10.7828C710.855 10.7828 536.937 26.4809 380.935 54.5995C372.941 56.0404 364.811 56.5044 356.698 56.0882C344.806 55.4783 332.821 55.1009 320.754 54.9621C313.781 54.8818 306.59 54.0941 299.762 52.669C157.597 22.9913 47.177 22.5319 -38.3999 42.4439V32.3806C48.6395 12.5901 159.944 13.4656 301.766 43.0715C307.973 44.3675 314.532 45.0857 320.867 45.1585C333.064 45.2988 345.177 45.6802 357.201 46.2968C364.606 46.6769 371.983 46.2508 379.196 44.9507C535.808 16.7222 710.308 0.978516 894.23 0.978516Z" fill="#131313"/>
</g>
</g>
</g>
</g>
<defs>
<clipPath id="clip0_1_729">
<rect width="1920" height="113.97" fill="white" transform="translate(0 0.980469)"/>
</clipPath>
<clipPath id="clip1_1_729">
<rect width="2016" height="113.97" fill="white" transform="translate(-38.3999 0.980469)"/>
</clipPath>
<clipPath id="clip2_1_729">
<rect width="2016" height="113.97" fill="white" transform="translate(-38.3999 0.980469)"/>
</clipPath>
<clipPath id="clip3_1_729">
<rect width="2016" height="113.974" fill="white" transform="translate(-38.3999 0.978516)"/>
</clipPath>
</defs>
</svg>
