<svg width="1920" height="1299" viewBox="0 0 1920 1299" fill="none" xmlns="http://www.w3.org/2000/svg">
<g clip-path="url(#clip0_17_6160)">
<g clip-path="url(#clip1_17_6160)">
<mask id="mask0_17_6160" style="mask-type:alpha" maskUnits="userSpaceOnUse" x="-256" y="0" width="2432" height="1299">
<path d="M2175.77 0H-255.771V1299H2175.77V0Z" fill="#D9D9D9"/>
</mask>
<g mask="url(#mask0_17_6160)">
<path d="M33.9003 -756.983L-584.302 1187.81" stroke="#141414" stroke-width="1.05353"/>
<path d="M111.21 -732.408L-506.993 1212.38" stroke="#141414" stroke-width="1.05353"/>
<path d="M188.52 -707.834L-429.683 1236.96" stroke="#141414" stroke-width="1.05353"/>
<path d="M265.83 -683.258L-352.373 1261.54" stroke="#141414" stroke-width="1.05353"/>
<path d="M343.139 -658.684L-275.064 1286.1" stroke="#141414" stroke-width="1.05353"/>
<path d="M420.449 -634.109L-197.754 1310.68" stroke="#141414" stroke-width="1.05353"/>
<path d="M497.759 -609.533L-120.443 1335.26" stroke="#141414" stroke-width="1.05353"/>
<path d="M575.068 -584.959L-43.1348 1359.83" stroke="#141414" stroke-width="1.05353"/>
<path d="M652.378 -560.384L34.1753 1384.41" stroke="#141414" stroke-width="1.05353"/>
<path d="M729.688 -535.808L111.485 1408.98" stroke="#141414" stroke-width="1.05353"/>
<path d="M806.996 -511.234L188.794 1433.56" stroke="#141414" stroke-width="1.05353"/>
<path d="M884.304 -486.659L266.104 1458.14" stroke="#141414" stroke-width="1.05353"/>
<path d="M961.622 -462.084L343.414 1482.7" stroke="#141414" stroke-width="1.05353"/>
<path d="M1038.93 -437.509L420.724 1507.28" stroke="#141414" stroke-width="1.05353"/>
<path d="M1116.24 -412.935L498.034 1531.86" stroke="#141414" stroke-width="1.05353"/>
<path d="M1193.55 -388.36L575.344 1556.43" stroke="#141414" stroke-width="1.05353"/>
<path d="M1270.85 -363.784L652.653 1581.01" stroke="#141414" stroke-width="1.05353"/>
<path d="M1348.16 -339.21L729.963 1605.59" stroke="#141414" stroke-width="1.05353"/>
<path d="M1425.48 -314.635L807.27 1630.16" stroke="#141414" stroke-width="1.05353"/>
<path d="M1502.79 -290.059L884.588 1654.73" stroke="#141414" stroke-width="1.05353"/>
<path d="M1580.1 -265.485L961.896 1679.3" stroke="#141414" stroke-width="1.05353"/>
<path d="M1657.4 -240.91L1039.2 1703.88" stroke="#141414" stroke-width="1.05353"/>
<path d="M1734.71 -216.336L1116.51 1728.46" stroke="#141414" stroke-width="1.05353"/>
<path d="M1812.03 -191.76L1193.82 1753.03" stroke="#141414" stroke-width="1.05353"/>
<path d="M1889.34 -167.185L1271.13 1777.61" stroke="#141414" stroke-width="1.05353"/>
<path d="M1966.65 -142.61L1348.45 1802.19" stroke="#141414" stroke-width="1.05353"/>
<path d="M2043.95 -118.035L1425.75 1826.75" stroke="#141414" stroke-width="1.05353"/>
<path d="M2121.26 -93.4603L1503.06 1851.33" stroke="#141414" stroke-width="1.05353"/>
<path d="M2198.57 -68.8855L1580.37 1875.9" stroke="#141414" stroke-width="1.05353"/>
<path d="M2275.89 -44.3103L1657.68 1900.48" stroke="#141414" stroke-width="1.05353"/>
<path d="M2353.2 -19.7356L1735 1925.06" stroke="#141414" stroke-width="1.05353"/>
<path d="M2430.5 4.83923L1812.3 1949.63" stroke="#141414" stroke-width="1.05353"/>
<path d="M2507.81 29.4139L1889.61 1974.21" stroke="#141414" stroke-width="1.05353"/>
<path d="M-63.8589 -718.966L2564.67 116.58" stroke="#141414" stroke-width="1.05353"/>
<path d="M-87.7949 -643.665L2540.73 191.882" stroke="#141414" stroke-width="1.05353"/>
<path d="M-111.732 -568.363L2516.8 267.184" stroke="#141414" stroke-width="1.05353"/>
<path d="M-135.668 -493.062L2492.86 342.486" stroke="#141414" stroke-width="1.05353"/>
<path d="M-159.605 -417.76L2468.93 417.788" stroke="#141414" stroke-width="1.05353"/>
<path d="M-183.542 -342.458L2444.99 493.089" stroke="#141414" stroke-width="1.05353"/>
<path d="M-207.478 -267.156L2421.05 568.391" stroke="#141414" stroke-width="1.05353"/>
<path d="M-231.415 -191.854L2397.12 643.693" stroke="#141414" stroke-width="1.05353"/>
<path d="M-255.352 -116.553L2373.18 718.995" stroke="#141414" stroke-width="1.05353"/>
<path d="M-279.288 -41.2511L2349.24 794.296" stroke="#141414" stroke-width="1.05353"/>
<path d="M-303.225 34.051L2325.31 869.598" stroke="#141414" stroke-width="1.05353"/>
<path d="M-327.161 109.352L2301.37 944.9" stroke="#141414" stroke-width="1.05353"/>
<path d="M-351.098 184.654L2277.44 1020.2" stroke="#141414" stroke-width="1.05353"/>
<path d="M-375.035 259.956L2253.5 1095.5" stroke="#141414" stroke-width="1.05353"/>
<path d="M-398.971 335.258L2229.56 1170.81" stroke="#141414" stroke-width="1.05353"/>
<path d="M-422.907 410.559L2205.63 1246.1" stroke="#141414" stroke-width="1.05353"/>
<path d="M-446.844 485.861L2181.69 1321.41" stroke="#141414" stroke-width="1.05353"/>
<path d="M-470.781 561.163L2157.74 1396.71" stroke="#141414" stroke-width="1.05353"/>
<path d="M-494.718 636.465L2133.81 1472.01" stroke="#141414" stroke-width="1.05353"/>
<path d="M-518.654 711.766L2109.87 1547.32" stroke="#141414" stroke-width="1.05353"/>
<path d="M-542.59 787.068L2085.94 1622.61" stroke="#141414" stroke-width="1.05353"/>
<path d="M-566.527 862.37L2062 1697.92" stroke="#141414" stroke-width="1.05353"/>
<path d="M-590.464 937.67L2038.06 1773.21" stroke="#141414" stroke-width="1.05353"/>
<path d="M-614.401 1012.97L2014.13 1848.52" stroke="#141414" stroke-width="1.05353"/>
<path d="M-638.337 1088.27L1990.19 1923.83" stroke="#141414" stroke-width="1.05353"/>
<path d="M-662.274 1163.58L1966.26 1999.12" stroke="#141414" stroke-width="1.05353"/>
</g>
</g>
</g>
<defs>
<clipPath id="clip0_17_6160">
<rect width="1920" height="1299" fill="white"/>
</clipPath>
<clipPath id="clip1_17_6160">
<rect width="2431.54" height="1299" fill="white" transform="translate(-255.771)"/>
</clipPath>
</defs>
</svg>
