<svg width="1917" height="71" viewBox="0 0 1917 71" fill="none" xmlns="http://www.w3.org/2000/svg">
<g clip-path="url(#clip0_1_489)">
<g clip-path="url(#clip1_1_489)">
<g clip-path="url(#clip2_1_489)">
<path fill-rule="evenodd" clip-rule="evenodd" d="M0 32.7596V70.7329H2016V14.0633C1980.96 4.86784 1944.37 -0.00390625 1906.74 -0.00390625C1879.47 -0.00390625 1852.74 2.55539 1826.74 7.46528C1785.71 15.2173 1743.98 21.1187 1702.41 17.1647C1586.51 6.13997 1457.65 -0.00390625 1321.89 -0.00390625C1169.31 -0.00390625 1025.44 7.75736 898.891 21.4866C877.982 23.755 856.914 23.8018 835.96 21.9859C793.674 18.3212 750.301 16.4171 706.105 16.4171C627.873 16.4171 552.216 22.3833 480.604 33.5206C411.969 44.195 341.913 31.971 274.756 14.2344C239.519 4.9283 202.71 -0.00390625 164.842 -0.00390625C106.79 -0.00390625 51.2256 11.5878 0 32.7596Z" fill="#1C1C1C"/>
</g>
</g>
</g>
<defs>
<clipPath id="clip0_1_489">
<rect width="1917" height="71" fill="white"/>
</clipPath>
<clipPath id="clip1_1_489">
<rect width="2016" height="70.73" fill="white"/>
</clipPath>
<clipPath id="clip2_1_489">
<rect width="2016" height="70.7368" fill="white" transform="translate(0 -0.00390625)"/>
</clipPath>
</defs>
</svg>
