<svg width="662" height="736" viewBox="0 0 662 736" fill="none" xmlns="http://www.w3.org/2000/svg">
<path d="M767.82 508.266C737.164 433.873 630.137 399.549 492.484 408.359C464.431 410.126 450.612 376.589 472.13 358.967C577.821 272.593 630.771 175.693 600.114 101.3C551.014 -17.8505 305.745 -34.213 52.3848 64.8881C-200.975 163.99 -366.537 341.048 -317.436 460.199C-286.78 534.592 -179.753 568.917 -42.0995 560.107C-14.0477 558.339 -0.227142 591.878 -21.7456 609.499C-127.437 695.874 -180.386 792.772 -149.73 867.166C-100.58 986.438 144.639 1002.68 397.999 903.578C651.359 804.477 816.921 627.417 767.82 508.266Z" fill="#FFD372"/>
</svg>
