<svg width="183" height="206" viewBox="0 0 183 206" fill="none" xmlns="http://www.w3.org/2000/svg">
<g clip-path="url(#clip0_1_356)">
<g clip-path="url(#clip1_1_356)">
<path d="M144.482 123.96C133.779 128.714 125.142 138.947 119.311 148.505C112.639 159.433 108.908 172.098 108.248 184.866C104.105 167.783 98.0786 148.088 84.1678 136.527C74.8996 128.824 63.2309 130.946 54.8428 138.355C60.771 129.818 65.2913 120.24 63.6482 109.548C61.9692 98.6713 52.3584 89.1189 42.499 84.4643C56.6894 87.7882 69.6563 78.5892 75.9107 65.9613C81.7955 54.0705 83.5095 39.2483 82.6054 25.5911C85.3949 38.5074 90.5395 52.2707 100.703 60.3769C109.737 67.5797 123.741 67.5365 134.073 62.7765C131.601 66.2867 130.363 71.0935 129.311 74.9341C127.143 82.8175 126.038 91.1424 126.322 99.3167C126.736 111.266 132.712 124.018 144.482 123.96ZM140.106 56.6376C126.721 57.7568 113.534 62.369 102.059 52.7076C97.148 48.5731 93.7876 42.7939 90.9234 37.1422C86.4633 28.3421 85.6877 17.8526 80.5526 9.42403C80.5271 9.38413 80.4828 9.36751 80.44 9.34179C80.4336 9.26555 80.4233 9.19063 80.414 9.11957C80.363 8.77478 79.788 8.64565 79.7461 9.05429C78.1597 24.6886 78.0654 40.383 72.939 55.4404C70.4391 62.7754 66.2326 69.6697 59.9958 74.3769C52.6178 79.9534 43.4358 80.3643 34.61 81.3594C34.3378 81.3922 34.2863 81.6865 34.4631 81.8356C34.2775 82.0065 34.2014 82.2781 34.4546 82.4902C43.9659 90.6525 54.4169 97.1042 57.6556 110.067C60.5482 121.642 54.3925 134.183 48.822 143.977C48.7926 144.007 48.7592 144.04 48.7298 144.07C48.4859 144.333 48.8328 144.721 49.1288 144.541C60.6179 137.612 71.6718 133.674 82.5821 143.893C88.3744 149.318 92.3822 156.63 95.8642 163.661C100.887 173.803 105.238 184.428 109.342 194.969C109.339 195.04 109.331 195.112 109.33 195.182C109.318 195.672 110.092 195.74 110.186 195.262C112.84 181.346 116.592 167.553 122.985 154.842C126.42 148.024 130.853 141.828 136.052 136.246C141.833 130.037 148.904 126.165 155.877 121.558C156.348 121.246 155.988 120.594 155.48 120.705C155.458 120.707 155.438 120.713 155.414 120.72C148.304 120.654 141.259 119.694 136.936 113.437C133.151 107.951 132.636 100.623 132.67 94.1746C132.738 81.5532 135.974 69.0461 140.834 57.4663C141.071 56.9013 140.581 56.5022 140.106 56.6376Z" fill="white"/>
<path d="M75.8354 158.523C76.8812 156.332 73.5555 154.575 72.499 156.774C67.3239 167.513 60.7095 177.484 55.111 187.996C54.8782 188.433 55.5009 188.882 55.8285 188.497C63.6648 179.335 70.6351 169.418 75.8354 158.523Z" fill="white"/>
<path d="M78.2796 160.877C77.0627 167.685 74.8735 174.289 73.8697 181.14C73.8238 181.48 74.3037 181.708 74.4679 181.357C77.4342 175.015 80.367 168.579 81.5811 161.637C81.9582 159.489 78.6633 158.723 78.2796 160.877Z" fill="white"/>
<path d="M64.3922 153.568C57.5961 155.55 52.4275 160.254 46.8 164.324C46.5154 164.526 46.7144 165.025 47.0659 164.898C53.3888 162.623 58.8928 158.562 65.3715 156.705C67.4101 156.121 66.4244 152.977 64.3922 153.568Z" fill="white"/>
<path d="M136.608 150.303C134.373 149.357 132.944 152.242 134.892 153.581C139.604 156.825 143.825 160.654 148.435 164.031C148.712 164.236 149.271 164.022 149.084 163.619C146.506 158.092 142.375 152.753 136.608 150.303Z" fill="white"/>
<path d="M145.789 146.037C143.822 145.412 141.406 144.332 139.335 144.871C137.817 145.267 138.006 147.129 139.066 147.862C140.606 148.925 143.157 149.149 144.968 149.614C147.227 150.195 149.302 150.009 151.562 149.825C152.027 149.783 152.251 149.109 151.775 148.893C149.757 147.971 147.946 146.72 145.789 146.037Z" fill="white"/>
<path d="M124.299 168.089C124.853 170.824 126.842 172.977 128.267 175.273C128.506 175.66 129.153 175.467 129.123 175.007C128.948 172.175 128.873 169.152 127.475 166.607C126.441 164.73 123.931 166.27 124.299 168.089Z" fill="white"/>
<path d="M140.057 99.1625C142.491 99.2326 144.75 99.496 146.996 98.3779C147.249 98.2515 147.335 97.8333 147.162 97.6134C145.458 95.4549 142.434 95.6516 139.937 95.6878C137.678 95.7194 137.839 99.1027 140.057 99.1625Z" fill="white"/>
<path d="M147.044 83.2024C145.927 83.9553 144.667 84.3577 143.452 84.9105C142.137 85.5127 140.818 86.12 139.508 86.7287C137.573 87.6287 138.52 90.8448 140.514 89.9486C143.738 88.4985 146.122 87.0022 147.476 83.5978C147.581 83.3347 147.317 83.0174 147.044 83.2024Z" fill="white"/>
<path d="M44.9984 115.497C46.5146 115.536 50.2975 115.972 51.3089 114.548C51.7742 113.894 51.7971 113.174 51.2182 112.572C50.0653 111.371 46.9742 112.163 45.488 112.262C43.1085 112.422 40.6417 113.027 38.2643 112.931C37.9521 112.92 37.9234 113.328 38.1412 113.469C40.224 114.823 42.526 115.43 44.9984 115.497Z" fill="white"/>
<path d="M59.4804 62.9641C51.7598 53.591 43.2872 44.2876 33.695 36.7855C33.3654 36.5233 32.8331 36.9068 33.1068 37.2821C40.1322 47.046 48.6383 55.7609 56.3102 65.0057C57.8406 66.8446 61.0323 64.8441 59.4804 62.9641Z" fill="white"/>
<path d="M109.318 45.3434C112.876 39.7647 116.268 34.3717 118.689 28.1743C118.861 27.738 118.279 27.2111 117.959 27.6591C114.106 33.1257 109.467 37.8557 105.873 43.5373C104.528 45.6611 107.978 47.4396 109.318 45.3434Z" fill="white"/>
<path d="M101.915 37.9055C103.184 33.9364 104.113 29.9085 104.906 25.8228C105.008 25.3129 104.272 25.0036 104.04 25.4978C102.211 29.3983 99.501 32.887 98.3146 37.0781C97.6601 39.3948 101.202 40.1449 101.915 37.9055Z" fill="white"/>
<path d="M115.648 48.0877C113.983 49.4772 115.782 52.3748 117.499 50.9694C119.123 49.6371 121.099 48.8246 122.878 47.7301C124.625 46.6585 126.253 45.3289 127.747 43.9324C128.043 43.6572 127.692 43.1019 127.315 43.2587C123.356 44.9034 119.065 45.2347 115.648 48.0877Z" fill="white"/>
<path d="M63.7514 50.7643C63.8822 46.6725 60.2714 43.3489 58.3157 40.0086C58.0896 39.6184 57.471 39.9202 57.6033 40.3439C58.2063 42.2333 58.722 44.1499 59.3052 46.0455C59.8524 47.8263 60.5856 49.4925 61.1999 51.1957C61.7122 52.6136 63.7062 52.2344 63.7514 50.7643Z" fill="white"/>
<path d="M40.5526 70.7113C42.2188 71.482 45.1578 73.0159 47.0273 72.3627C48.1753 71.9608 48.3871 70.6342 47.6001 69.7846C46.5805 68.6902 44.0698 68.431 42.6635 68.0616C40.3393 67.4528 38.0598 67.1821 35.8471 66.1647C35.5311 66.0157 35.0724 66.3981 35.3418 66.7181C36.699 68.3504 38.6261 69.8176 40.5526 70.7113Z" fill="white"/>
</g>
</g>
<defs>
<clipPath id="clip0_1_356">
<rect width="160.003" height="187.075" fill="white" transform="translate(23.7402 0.810059) rotate(6.99998)"/>
</clipPath>
<clipPath id="clip1_1_356">
<rect width="160.003" height="187.075" fill="white" transform="translate(23.7402 0.810059) rotate(6.99998)"/>
</clipPath>
</defs>
</svg>
