<svg width="139" height="143" viewBox="0 0 139 143" fill="none" xmlns="http://www.w3.org/2000/svg">
<g clip-path="url(#clip0_1_376)">
<g clip-path="url(#clip1_1_376)">
<g clip-path="url(#clip2_1_376)">
<path d="M12.4815 74.7185C12.4082 74.7849 12.3362 74.8548 12.2626 74.9212C12.2288 74.9292 12.195 74.9371 12.1601 74.9452C12.2675 74.8708 12.3757 74.7965 12.4815 74.7185ZM28.2361 53.6023C29.9563 45.101 27.7855 34.6515 22.3342 27.451C29.9331 33.1883 40.3987 36.5564 49.4665 34.7134C60.1546 32.5415 68.8608 23.1709 74.3815 13.8706C69.9557 25.9934 72.0191 40.838 84.5738 46.7651C94.1486 51.2857 106.089 50.9886 116.868 49.8103C107.024 53.0552 98.7434 61.5253 96.4169 71.5107C94.2625 80.7607 96.766 92.0824 102.461 99.9062C93.4483 93.5594 81.8824 90.9873 71.0103 94.0718C58.6866 97.5716 51.8301 108.235 49.9695 120.04C49.8662 119.456 49.7601 118.885 49.6554 118.324C48.3821 111.517 46.3597 104.697 43.1576 98.5347C40.9801 94.3476 37.671 89.8334 32.6144 89.2852C30.4169 89.0507 28.3688 89.944 26.549 91.069C24.677 92.2234 22.8353 93.76 21.0992 95.4554C23.271 91.7925 24.8506 87.7782 25.3825 83.6595C26.1068 78.0464 20.8193 72.6595 15.6251 73.5914C22.2067 68.7338 26.563 61.8762 28.2361 53.6023ZM128.428 47.4052C116.052 45.8074 103.123 47.8648 91.0542 44.1205C85.2057 42.3095 80.389 38.7252 77.8844 33.0463C74.2013 24.6927 77.047 15.6942 77.7713 7.11267C77.7728 7.09339 77.7605 7.08341 77.7582 7.06459C77.7889 7.00733 77.8227 6.94973 77.8524 6.89259C78.0656 6.48821 77.4913 6.24163 77.2182 6.51584C68.8072 15.002 61.1042 26.3735 48.8944 29.5344C36.8389 32.6574 26.8584 24.9358 16.2574 20.8316C16.1451 20.7346 16.0415 20.6289 15.9277 20.5359C15.6843 20.3365 15.3136 20.6151 15.4409 20.9051C17.6958 25.9996 20.6967 30.6206 22.4953 35.9353C24.232 41.0628 24.5585 46.5469 23.8159 51.8834C22.4662 61.5694 16.1509 70.2414 8.82849 76.3896C8.58773 76.5911 8.81687 77.0634 9.11721 76.8928C9.15291 76.8693 9.18522 76.8462 9.22139 76.8265C12.268 78.2136 16.3372 76.9767 18.8623 79.6579C21.0674 82.0041 19.7572 86.4858 18.9357 89.1195C17.1585 94.8199 14.3787 100.208 11.9253 105.628C11.765 105.984 12.1808 106.197 12.4503 106.015C12.5532 106.059 12.6717 106.075 12.7901 106.003C17.2442 103.241 21.0988 99.7609 25.1587 96.4698C27.1257 94.8758 29.6838 93.7938 32.2008 94.585C37.1066 96.1259 39.8284 102.737 41.6089 107.003C45.6463 116.682 47.4207 127.137 49.676 137.313C49.6972 137.486 49.7042 137.664 49.7267 137.841C49.7861 138.3 50.4751 138.311 50.541 137.852C52.7872 122.139 56.3227 104.15 74.0185 99.6355C84.6584 96.9194 98.5964 99.8115 108.05 105.28C108.522 105.55 108.914 104.806 108.521 104.48C108.474 104.444 108.424 104.407 108.378 104.372C104.661 94.811 100.543 85.3571 101.681 74.8491C102.281 69.3161 104.71 64.2692 108.281 60.0524C113.561 53.8227 120.993 51.6646 127.943 48.0607C128.1 48.0376 128.264 48.0214 128.42 47.9983C128.754 47.9574 128.768 47.4476 128.428 47.4052Z" fill="white"/>
<path d="M89.8181 34.6182C89.8323 34.6432 89.846 34.6644 89.8597 34.6895C95.8195 30.5423 101.434 25.8531 106.423 20.5644C106.67 20.301 106.267 19.9304 105.994 20.1281C102.351 22.7683 98.5293 25.1133 94.8375 27.6754C93.379 28.6873 87.7001 31.715 88.0355 33.9201C88.194 34.959 89.2024 35.0949 89.8181 34.6182Z" fill="white"/>
<path d="M93.9974 35.7054C92.7436 36.0352 93.3176 38.2302 94.5786 37.9187C97.9661 37.0825 100.933 35.4727 103.889 33.6504C104.152 33.4883 103.952 33.0773 103.671 33.1157C100.352 33.5614 97.2167 34.8517 93.9974 35.7054Z" fill="white"/>
<path d="M49.2489 23.7987C48.6793 19.5326 46.8371 15.8392 44.6874 12.1644C44.466 11.7866 43.8094 12.0698 43.8964 12.4869C44.7353 16.5061 45.851 20.4491 46.9164 24.4098C47.2793 25.7598 49.4256 25.1257 49.2489 23.7987Z" fill="white"/>
<path d="M12.3401 53.4642C14.0407 54.2869 15.9062 54.8066 17.6564 55.5201C19.1673 56.133 20.1608 53.8296 18.6563 53.1968C14.926 51.6339 11.0868 50.581 7.26805 49.281C6.90335 49.1577 6.59222 49.62 6.9161 49.8744C8.6562 51.2461 10.3382 52.499 12.3401 53.4642Z" fill="white"/>
<path d="M31.4147 103.048C29.5523 104.224 28.967 107.463 28.2709 109.432C27.3495 112.04 26.7447 114.796 26.0939 117.477C25.9989 117.864 26.5616 117.966 26.7268 117.655C27.9991 115.249 29.1543 112.781 30.2487 110.285C31.0889 108.375 32.8336 105.643 32.5509 103.527C32.4755 102.96 31.8628 102.767 31.4147 103.048Z" fill="white"/>
<path d="M70.4914 105.451C69.8669 105.203 69.0916 105.699 69.2092 106.415C69.5084 108.239 71.1399 109.768 72.202 111.247C73.6501 113.261 75.3218 115.096 76.8182 117.075C77.0061 117.324 77.3867 117.093 77.2806 116.812C76.4401 114.577 75.7976 112.253 74.5672 110.189C73.5823 108.536 72.3387 106.187 70.4914 105.451Z" fill="white"/>
<path d="M119.873 75.1817C117.894 74.6493 115.867 74.2715 113.822 74.1139C112.107 73.9844 109.137 73.1993 107.86 74.5976C107.571 74.9119 107.619 75.4218 107.852 75.7447C108.937 77.2619 112.289 76.774 113.955 76.7986C115.904 76.8267 118.172 76.6781 119.948 75.7877C120.241 75.637 120.176 75.263 119.873 75.1817Z" fill="white"/>
<path d="M109.84 69.1517C109.868 69.156 109.889 69.1801 109.918 69.1842C110.294 69.2412 110.622 69.0557 110.962 68.9338C111.72 68.6611 112.485 68.296 113.212 67.9508C114.714 67.2392 116.292 66.2164 117.458 65.0226C117.663 64.814 117.374 64.5362 117.144 64.6102C114.609 65.4603 111.575 65.466 109.41 67.2179C109.122 67.452 108.915 67.848 108.986 68.2289C108.993 68.1516 109 68.0705 109.008 67.9932C108.776 68.503 109.229 69.2726 109.84 69.1517Z" fill="white"/>
<path d="M83.9286 27.4022C84.3578 26.0774 84.834 24.7696 85.1054 23.3992C85.3886 21.9777 85.989 20.4981 85.9624 19.0343C85.9574 18.7599 85.5488 18.6649 85.4004 18.8817C84.6155 20.0095 84.0902 21.3385 83.4199 22.5403C82.6879 23.8526 81.9886 25.2794 81.7541 26.7828C81.5612 28.0367 83.5238 28.6515 83.9286 27.4022Z" fill="white"/>
<path d="M54.8156 21.5258C56.5051 19.477 56.255 16.0121 56.0292 13.5413C55.9993 13.2164 55.4654 13.1063 55.3648 13.4472C54.6438 15.889 53.6934 18.317 53.0611 20.7747C52.8005 21.7885 54.2348 22.2313 54.8156 21.5258Z" fill="white"/>
<path d="M38.7982 24.8296C40.0243 25.6112 41.4367 23.8255 40.1988 23.0377C38.1617 21.7368 36.0549 20.6699 33.879 19.6229C33.6673 19.519 33.4445 19.8023 33.5969 19.9822C35.1186 21.7935 36.7991 23.5545 38.7982 24.8296Z" fill="white"/>
<path d="M17.2874 48.6088C18.09 49.1407 19.4997 48.3869 18.9424 47.355C17.6907 45.0293 15.17 43.2185 13.0174 41.7752C12.7081 41.5686 12.3871 41.9099 12.5718 42.2158C13.8663 44.3643 15.1443 47.1872 17.2874 48.6088Z" fill="white"/>
<path d="M10.6146 89.7206C12.6657 88.7773 14.2031 87.0451 15.9936 85.7135C17.2279 84.798 15.7838 82.897 14.5466 83.8167C12.6176 85.2494 11.1929 87.1129 10.204 89.3011C10.0926 89.5516 10.3613 89.8357 10.6146 89.7206Z" fill="white"/>
<path d="M35.097 106.725C35.1063 107.759 35.226 108.806 35.2874 109.842C35.3561 110.998 35.4377 112.295 35.7971 113.401C35.8813 113.658 36.2912 113.657 36.3798 113.405C36.7822 112.283 37.1036 111.036 37.3403 109.869C37.5872 108.646 37.8759 107.319 37.4467 106.108C36.9478 104.702 35.0842 105.439 35.097 106.725Z" fill="white"/>
<path d="M65.5796 109.787C65.1857 109.61 64.8064 109.824 64.6137 110.168C64.0382 111.194 64.67 112.588 64.9039 113.674C65.226 115.171 65.6022 116.648 66.2002 118.065C66.311 118.326 66.6975 118.276 66.7451 117.998C67.0038 116.476 67.1412 114.954 67.057 113.41C66.99 112.158 66.843 110.353 65.5796 109.787Z" fill="white"/>
<path d="M79.949 102.846C78.6438 102.188 77.8052 104.232 79.062 104.907C80.7792 105.831 82.163 106.933 84.1509 107.208C84.4679 107.253 84.6445 106.903 84.4785 106.652C83.3063 104.89 81.8331 103.791 79.949 102.846Z" fill="white"/>
<path d="M14.1424 61.2382C12.203 61.9653 10.3623 62.8294 8.73235 64.1221C8.44685 64.3481 8.64185 64.7789 8.99116 64.755C11.0764 64.6098 12.9978 63.9077 14.9252 63.1401C16.1573 62.6488 15.3807 60.773 14.1424 61.2382Z" fill="white"/>
</g>
</g>
</g>
<defs>
<clipPath id="clip0_1_376">
<rect width="122.997" height="128.004" fill="white" transform="translate(0.840332 15.8101) rotate(-6.99998)"/>
</clipPath>
<clipPath id="clip1_1_376">
<rect width="122.997" height="128.004" fill="white" transform="translate(0.840332 15.8101) rotate(-6.99998)"/>
</clipPath>
<clipPath id="clip2_1_376">
<rect width="123" height="128" fill="white" transform="translate(0.840332 15.8101) rotate(-6.99998)"/>
</clipPath>
</defs>
</svg>
