<svg width="53" height="40" viewBox="0 0 53 40" fill="none" xmlns="http://www.w3.org/2000/svg">
<g clip-path="url(#clip0_1_325)">
<g clip-path="url(#clip1_1_325)">
<g clip-path="url(#clip2_1_325)">
<path d="M51.7705 5.56275C51.7705 5.86743 51.6944 6.24829 51.542 6.70532C51.4658 7.16235 51.4277 7.61939 51.4277 8.07642C51.4277 8.45725 51.4658 8.80005 51.542 9.10477C51.6944 9.40941 51.999 9.56173 52.456 9.56173C51.1612 11.5422 49.8281 13.5989 48.457 15.7317C47.1621 17.7884 45.9433 19.9212 44.8008 22.1301C43.6582 24.2629 42.706 26.3957 41.9444 28.5285C41.1826 30.6614 40.7636 32.7561 40.6875 34.8128C40.6875 36.0315 40.0781 36.717 38.8594 36.8694C37.7168 37.0217 36.3457 36.9456 34.7461 36.6409C33.2227 36.2601 31.6992 35.803 30.1758 35.2698C28.7285 34.6604 27.6621 34.2033 26.9765 33.8987C26.6719 33.2132 26.4433 32.4133 26.291 31.4993C26.1387 30.5852 26.0244 29.6712 25.9482 28.7571C25.872 27.7668 25.7959 26.8147 25.7197 25.9006C25.7197 24.9104 25.7197 24.0725 25.7197 23.3869C26.3291 22.5491 26.748 21.4446 26.9765 20.0735C27.2051 18.7024 27.5479 17.4456 28.0048 16.303C28.3096 15.5412 28.4619 15.0842 28.4619 14.9319C28.4619 14.7033 28.4619 14.5891 28.4619 14.5891C28.4619 14.5129 28.5 14.3987 28.5762 14.2464C28.6524 14.0178 28.8808 13.5227 29.2617 12.761C29.414 12.3801 29.414 12.0754 29.2617 11.8469C29.1094 11.5422 29.1094 11.2756 29.2617 11.0471C29.414 10.8948 29.6045 10.7424 29.833 10.59C30.1377 10.4377 30.3281 10.2854 30.4043 10.1331C30.709 9.67605 30.8232 9.33325 30.7471 9.10477C30.6709 8.87621 30.8232 8.53341 31.2041 8.07642C31.5088 7.69555 31.9277 7.20044 32.4609 6.59107C32.9941 5.90551 33.2608 5.25806 33.2608 4.64868C34.3272 3.96314 35.3174 3.23951 36.2315 2.47779C37.2216 1.71607 38.5547 1.14478 40.2304 0.763916C40.6113 0.992431 41.2968 1.37329 42.2871 1.9065C43.2773 2.4397 44.3818 2.9729 45.6006 3.50611C46.8193 3.96314 48 4.42017 49.1426 4.87719C50.2852 5.25806 51.1612 5.48657 51.7705 5.56275ZM26.0625 9.33325C24.9199 11.4661 23.7773 13.7132 22.6348 16.0744C21.4922 18.3596 20.4258 20.6828 19.4356 23.0442C18.5215 25.3293 17.7598 27.6526 17.1504 30.0139C16.541 32.2991 16.2744 34.5081 16.3506 36.6409C16.3506 37.9358 15.7793 38.6975 14.6367 38.9261C13.5703 39.1545 12.2754 39.1545 10.752 38.9261C9.30468 38.6213 7.85742 38.2024 6.41016 37.6692C4.96289 37.136 3.89648 36.717 3.21094 36.4124C2.90625 35.7268 2.63965 34.927 2.41113 34.0129C2.25879 33.0989 2.10644 32.1467 1.9541 31.1565C1.87793 30.0901 1.80176 29.0617 1.72559 28.0716C1.64941 27.0813 1.57324 26.2053 1.49707 25.4436C2.03028 24.5296 2.37305 23.3489 2.52539 21.9016C2.67773 20.4544 2.94434 19.1213 3.32519 17.9026C3.55371 17.0647 3.66797 16.5696 3.66797 16.4173C3.66797 16.1887 3.66797 16.0744 3.66797 16.0744C3.66797 15.9983 3.66797 15.846 3.66797 15.6174C3.74414 15.3889 3.93457 14.8557 4.23926 14.0178C4.3916 13.6369 4.3916 13.3323 4.23926 13.1037C4.08692 12.7991 4.08692 12.4944 4.23926 12.1897C4.3916 12.0373 4.58204 11.885 4.81055 11.7327C5.03906 11.5041 5.1914 11.3137 5.26758 11.1614C5.49609 10.6282 5.57227 10.2473 5.49609 10.0188C5.41992 9.79029 5.57227 9.44749 5.95312 8.99045C6.18164 8.60965 6.52441 8.03833 6.98144 7.27661C7.51465 6.51489 7.74316 5.82935 7.667 5.21997C8.7334 4.45825 9.64748 3.65845 10.4092 2.82055C11.2471 1.9065 12.4277 1.22095 13.9512 0.763916C14.332 0.992431 15.0176 1.37329 16.0078 1.9065C16.998 2.36352 18.0644 2.82055 19.207 3.27759C20.4258 3.73462 21.5684 4.15356 22.6348 4.53443C23.7012 4.91528 24.5391 5.1438 25.1484 5.21997C25.1484 5.52466 25.1104 5.90551 25.0342 6.36255C25.0342 6.81958 25.0342 7.27661 25.0342 7.73364C25.0342 8.19067 25.1104 8.57157 25.2627 8.87621C25.415 9.18093 25.6816 9.33325 26.0625 9.33325Z" fill="#131313"/>
</g>
</g>
</g>
<defs>
<clipPath id="clip0_1_325">
<rect width="52" height="39.19" fill="white" transform="translate(0.97998 0.290039)"/>
</clipPath>
<clipPath id="clip1_1_325">
<rect width="52" height="39.19" fill="white" transform="translate(0.97998 0.290039)"/>
</clipPath>
<clipPath id="clip2_1_325">
<rect width="52" height="39.2" fill="white" transform="translate(0.97998 0.285034)"/>
</clipPath>
</defs>
</svg>
